<?xml version="1.0" standalone="no"?>
<!DOCTYPE svg PUBLIC "-//W3C//DTD SVG 20010904//EN"
 "http://www.w3.org/TR/2001/REC-SVG-20010904/DTD/svg10.dtd">
<svg version="1.0" xmlns="http://www.w3.org/2000/svg"
 width="500.000000pt" height="500.000000pt" viewBox="0 0 500.000000 500.000000"
 preserveAspectRatio="xMidYMid meet">
<metadata>
Created by potrace 1.16, written by Peter Selinger 2001-2019
</metadata>
<g transform="translate(0.000000,500.000000) scale(0.100000,-0.100000)"
fill="#000000" stroke="none">
<path d="M3577 3602 c-22 -25 -21 -75 1 -95 25 -23 78 -21 102 3 25 25 26 72
2 93 -25 23 -85 22 -105 -1z"/>
<path d="M4252 3338 c5 -275 10 -302 63 -326 14 -7 49 -12 77 -12 l51 0 -5 44
c-3 25 -15 57 -27 72 -20 25 -21 37 -21 250 l0 224 -71 0 -72 0 5 -252z"/>
<path d="M2070 3280 l0 -272 138 4 c124 3 141 5 182 28 93 52 136 170 113 307
-15 85 -51 138 -118 172 -44 23 -63 26 -182 29 l-133 4 0 -272z m232 143 c46
-22 60 -55 61 -135 0 -111 -30 -154 -120 -171 l-33 -6 0 169 0 170 33 -7 c17
-3 44 -12 59 -20z"/>
<path d="M3294 3430 c-18 -4 -47 -17 -67 -29 -42 -26 -43 -26 -50 -1 -4 17
-14 20 -56 20 l-51 0 0 -205 0 -205 65 0 65 0 0 129 c0 109 3 132 18 151 19
23 65 31 83 13 5 -5 12 -73 16 -151 l6 -142 64 0 63 0 0 160 c0 165 -8 209
-43 238 -23 20 -76 29 -113 22z"/>
<path d="M2665 3412 c-27 -10 -51 -25 -53 -33 -1 -8 7 -29 18 -48 17 -27 25
-32 43 -26 67 22 137 17 137 -10 0 -8 -17 -19 -42 -25 -127 -32 -167 -62 -175
-133 -13 -111 91 -171 199 -116 37 19 42 19 50 5 7 -12 24 -16 65 -16 l55 0
-4 153 c-5 166 -15 205 -66 242 -38 28 -159 32 -227 7z"/>
<path d="M3878 3401 c-62 -40 -93 -103 -93 -192 0 -55 5 -73 30 -114 54 -88
162 -119 278 -79 54 18 60 38 25 79 -21 24 -26 25 -56 14 -18 -6 -46 -9 -62
-5 -37 7 -80 34 -80 51 0 13 84 25 181 25 l59 0 0 58 c0 71 -31 137 -79 169
-52 35 -142 32 -203 -6z"/>
<path d="M3560 3215 l0 -205 70 0 70 0 0 205 0 205 -70 0 -70 0 0 -205z"/>
<path d="M3432 2571 c-198 -50 -355 -172 -434 -337 -41 -85 -43 -94 -47 -196
-3 -87 1 -120 18 -176 24 -81 81 -172 140 -225 87 -78 135 -103 451 -236 80
-33 162 -72 183 -87 68 -46 80 -120 27 -172 -36 -36 -90 -52 -177 -52 -118 0
-233 40 -372 130 l-64 42 -28 -29 c-66 -67 -239 -289 -237 -302 10 -49 267
-187 423 -227 198 -50 418 -43 585 20 107 40 183 90 257 169 100 108 143 219
143 372 0 158 -41 266 -140 365 -70 70 -160 117 -411 215 -107 42 -215 89
-240 106 -69 44 -86 96 -50 155 30 50 90 67 208 62 110 -5 181 -27 276 -83 33
-20 63 -34 68 -33 10 4 238 290 239 300 0 14 -139 110 -215 147 -133 65 -208
83 -380 87 -122 3 -164 0 -223 -15z"/>
<path d="M2097 2313 c-4 -137 -7 -428 -7 -648 0 -251 -4 -414 -11 -438 -14
-50 -71 -113 -116 -128 -90 -29 -204 13 -271 101 -19 25 -39 46 -46 48 -14 3
-305 -213 -312 -233 -16 -40 163 -221 267 -272 112 -54 177 -67 344 -67 118
-1 163 3 210 17 193 59 332 205 396 417 23 74 23 81 27 763 l3 687 -239 0
-239 0 -6 -247z"/>
</g>
</svg>